<svg xmlns="http://www.w3.org/2000/svg" viewBox="0 0 512 512">
  <defs>
    <linearGradient id="bg" x1="64" y1="34" x2="442" y2="492" gradientUnits="userSpaceOnUse">
      <stop offset="0" stop-color="#093a5b"/>
      <stop offset=".42" stop-color="#07172c"/>
      <stop offset="1" stop-color="#020514"/>
    </linearGradient>
    <linearGradient id="mark" x1="135" y1="145" x2="372" y2="390" gradientUnits="userSpaceOnUse">
      <stop offset="0" stop-color="#2f89ff"/>
      <stop offset=".48" stop-color="#7ff7ff"/>
      <stop offset="1" stop-color="#20d6b8"/>
    </linearGradient>
    <linearGradient id="edge" x1="122" y1="145" x2="390" y2="382" gradientUnits="userSpaceOnUse">
      <stop offset="0" stop-color="#7df4ff"/>
      <stop offset="1" stop-color="#2169d6"/>
    </linearGradient>
    <filter id="shadow" x="-20%" y="-20%" width="140%" height="140%">
      <feDropShadow dx="0" dy="16" stdDeviation="14" flood-color="#000512" flood-opacity=".65"/>
    </filter>
  </defs>

  <rect width="512" height="512" rx="112" fill="url(#bg)"/>
  <path d="M91 95c68-54 190-65 326-21-88-11-171 4-248 45-50 27-77 60-78 100V95z" fill="#0d4d72" opacity=".28"/>
  <g filter="url(#shadow)">
    <path d="M128 313v-76h49c33 0 61 18 85 54 40-78 98-134 174-168l-39 94 61 6-122 126h-55c8-58 34-109 78-154-39 24-69 57-91 98l-28 54-28-54c-15-28-34-44-57-48v68h-27z" fill="#06111f" opacity=".7"/>
    <path d="M118 305v-92h54c37 0 68 19 94 58 39-76 97-130 174-163l-41 96 61 7-129 134h-64c8-56 31-106 69-150-32 25-57 56-75 93l-30 60-31-59c-14-27-30-41-49-44v60h-33z" fill="url(#edge)"/>
    <path d="M139 283v-45h20c28 1 50 18 68 51l10 19 10-20c39-80 96-135 171-165l-41 82 39 5-97 101h-27c12-58 43-112 93-161-67 37-117 87-151 151l-8 16-8-16c-22-42-48-64-79-68v50h-20z" fill="url(#mark)"/>
    <path d="M125 177c51 3 92 25 124 66l-30 35c-23-35-55-54-94-57v-44z" fill="url(#mark)" opacity=".92"/>
    <path d="M125 244c29 4 52 19 69 45v56h-69V244z" fill="url(#mark)" opacity=".86"/>
    <path d="M341 241l51-58v162h-51V241z" fill="url(#mark)" opacity=".88"/>
  </g>
  <path d="M130 177c47 4 85 23 115 59" fill="none" stroke="#b9fbff" stroke-width="8" opacity=".45"/>
  <path d="M300 303c23-63 63-120 121-171" fill="none" stroke="#c8fcff" stroke-width="8" opacity=".45"/>
</svg>
